<?xml version="1.0" standalone="no"?>
<!DOCTYPE svg PUBLIC "-//W3C//DTD SVG 20010904//EN"
 "http://www.w3.org/TR/2001/REC-SVG-20010904/DTD/svg10.dtd">
<svg version="1.0" xmlns="http://www.w3.org/2000/svg"
 width="512.000000pt" height="512.000000pt" viewBox="0 0 512.000000 512.000000"
 preserveAspectRatio="xMidYMid meet">
<metadata>
Created by potrace 1.14, written by Peter Selinger 2001-2017
</metadata>
<g transform="translate(0.000000,512.000000) scale(0.100000,-0.100000)"
fill="#000000" stroke="none">
<path d="M2369 5116 c-2 -2 -34 -6 -70 -10 -330 -31 -680 -141 -984 -310 -523
-290 -941 -774 -1150 -1332 -37 -97 -102 -315 -109 -364 -3 -14 -9 -50 -15
-80 -29 -156 -36 -244 -35 -470 0 -113 4 -234 8 -270 5 -36 10 -72 11 -80 8
-66 32 -184 57 -278 144 -555 456 -1030 909 -1384 333 -259 758 -445 1154
-504 22 -3 51 -8 65 -10 114 -20 466 -26 614 -11 116 11 327 52 441 86 595
172 1102 548 1441 1066 68 103 66 101 144 256 103 204 183 433 215 618 3 19 7
37 9 40 4 7 13 59 22 129 3 26 8 58 10 72 9 49 11 456 3 525 -15 133 -21 175
-34 235 -3 14 -10 46 -15 71 -23 115 -94 335 -148 461 -199 456 -507 827 -924
1112 -53 36 -100 66 -104 66 -4 0 -15 6 -23 14 -20 18 -257 137 -331 166 -154
62 -408 136 -498 145 -18 2 -36 6 -40 8 -4 3 -36 8 -72 12 -36 4 -74 9 -85 12
-23 5 -461 14 -466 9z"/>
</g>
</svg>
